<svg id="Capa_1" enable-background="new 0 0 512 512" height="512" viewBox="0 0 512 512" width="512" xmlns="http://www.w3.org/2000/svg"><g><path d="m226 120c8.284 0 15-6.716 15-15 0-8.271 6.729-15 15-15s15 6.729 15 15c0 6.322-3.995 12-9.939 14.129-11.999 4.298-20.061 15.747-20.061 28.49v2.381c0 8.284 6.716 15 15 15s15-6.716 15-15v-2.381c0-.106.074-.21.177-.246 17.838-6.391 29.823-23.419 29.823-42.373 0-24.813-20.187-45-45-45s-45 20.187-45 45c0 8.284 6.716 15 15 15z"/><circle cx="256" cy="195" r="15"/><path d="m497 150h-46v-45c0-8.284-6.716-15-15-15h-52.722c-18.574-52.38-68.611-90-127.278-90s-108.704 37.62-127.278 90h-52.722c-8.284 0-15 6.716-15 15v45h-46c-8.284 0-15 6.716-15 15v302c0 8.284 6.716 15 15 15h174.787l25.607 25.607c2.813 2.813 6.628 4.393 10.606 4.393h60c3.979 0 7.794-1.58 10.606-4.393l25.607-25.607h174.787c8.284 0 15-6.716 15-15v-302c0-8.284-6.716-15-15-15zm-76-30v272h-135c-5.259 0-10.305.916-15 2.581v-77.08c9.796-27.997 29.128-51.777 54.614-67.101 39.546-23.777 65.386-66.823 65.386-115.4 0-5.07-.291-10.073-.838-15zm-165-90c57.897 0 105 47.103 105 105 0 37.019-19.007 70.548-50.845 89.69-22.397 13.467-40.952 32.221-54.155 54.38-13.202-22.158-31.758-40.914-54.156-54.38-31.837-19.142-50.844-52.671-50.844-89.69 0-57.897 47.103-105 105-105zm-165 90h30.838c-.547 4.927-.838 9.93-.838 15 0 48.68 25.926 91.675 65.386 115.4 25.488 15.325 44.82 39.106 54.614 67.101v77.08c-4.695-1.665-9.741-2.581-15-2.581h-135zm391 332h-166c-3.979 0-7.794 1.58-10.606 4.393l-25.607 25.607h-47.574l-25.607-25.607c-2.813-2.813-6.628-4.393-10.606-4.393h-166v-272h31v227c0 8.284 6.716 15 15 15h150c8.271 0 15 6.729 15 15 0 8.284 6.716 15 15 15s15-6.716 15-15c0-.001 0-.002 0-.003v-.001c0-8.269 6.729-14.995 15-14.995h150c8.284 0 15-6.716 15-15v-227.001h31z"/></g></svg>