<?xml version="1.0"?>
<svg xmlns="http://www.w3.org/2000/svg" id="Outline" viewBox="0 0 512 512" width="512" height="512"><path d="M248,168a8,8,0,0,0,8,8H432a8,8,0,0,0,0-16H256A8,8,0,0,0,248,168Z"/><path d="M328,216a8,8,0,0,0-8-8H208a8,8,0,0,0,0,16H320A8,8,0,0,0,328,216Z"/><path d="M432,256H320a8,8,0,0,0,0,16H432a8,8,0,0,0,0-16Z"/><path d="M360,312a8,8,0,0,0-8-8H320a8,8,0,0,0,0,16h32A8,8,0,0,0,360,312Z"/><path d="M224,176a8,8,0,0,0,0-16H160a8,8,0,0,0,0,16Z"/><path d="M432,208H352a8,8,0,0,0,0,16h80a8,8,0,0,0,0-16Z"/><path d="M432,304H384a8,8,0,0,0,0,16h48a8,8,0,0,0,0-16Z"/><path d="M368,400H288a8,8,0,0,0,0,16h80a8,8,0,0,0,0-16Z"/><path d="M256,400H208a8,8,0,0,0,0,16h48a8,8,0,0,0,0-16Z"/><path d="M160,128h96a8,8,0,0,0,0-16H160a8,8,0,0,0,0,16Z"/><path d="M320,352a8,8,0,0,0,0,16h16a8,8,0,0,0,0-16Z"/><path d="M432,352H368a8,8,0,0,0,0,16h64a8,8,0,0,0,0-16Z"/><path d="M432,400H400a8,8,0,0,0,0,16h32a8,8,0,0,0,0-16Z"/><path d="M24,312a8,8,0,0,0,2.732,6.021L104,385.63V456a40.045,40.045,0,0,0,40,40H448a40.045,40.045,0,0,0,40-40V120a8,8,0,0,0-2.343-5.657l-96-96A8,8,0,0,0,384,16H144a40.045,40.045,0,0,0-40,40V238.37L26.732,305.979A8,8,0,0,0,24,312ZM392,43.313,460.687,112H416a24.027,24.027,0,0,1-24-24ZM120,56a24.028,24.028,0,0,1,24-24H376V88a40.045,40.045,0,0,0,40,40h56V456a24.028,24.028,0,0,1-24,24H144a24.028,24.028,0,0,1-24-24V399.63l34.732,30.391A8,8,0,0,0,168,424V368H272a8,8,0,0,0,8-8V264a8,8,0,0,0-8-8H168V200a8,8,0,0,0-13.268-6.021L120,224.37Zm32,161.63V264a8,8,0,0,0,8,8H264v80H160a8,8,0,0,0-8,8v46.37L44.149,312Z"/></svg>
